HIERARCHY
ROOT Hips
{
    OFFSET   0.000000   0.000000   0.000000
    CHANNELS 6 Xposition Yposition Zposition Zrotation Xrotation Yrotation
    JOINT Chest
    {
        OFFSET   0.000000   8.007230   0.000000
        CHANNELS 3 Zrotation Xrotation Yrotation
        JOINT Chest2
        {
            OFFSET   0.000000  22.077100   0.000000
            CHANNELS 3 Zrotation Xrotation Yrotation
            JOINT Neck
            {
                OFFSET   0.000000  23.255100   0.000000
                CHANNELS 3 Zrotation Xrotation Yrotation
                JOINT Head
                {
                    OFFSET   0.000000  14.370100   1.956600
                    CHANNELS 3 Zrotation Xrotation Yrotation
                    End Site
                    {
                        OFFSET   0.000000  19.566000   0.000000
                    }
                }
            }
            JOINT LeftCollar
            {
                OFFSET   3.911900  19.017000  -0.467063
                CHANNELS 3 Zrotation Xrotation Yrotation
                JOINT LeftShoulder
                {
                    OFFSET  10.383700   0.000000   0.000000
                    CHANNELS 3 Zrotation Xrotation Yrotation
                    JOINT LeftElbow
                    {
                        OFFSET  26.662100   0.001193   0.000980
                        CHANNELS 3 Zrotation Xrotation Yrotation
                        JOINT LeftWrist
                        {
                            OFFSET  28.869000  -0.000059  -0.000082
                            CHANNELS 3 Zrotation Xrotation Yrotation
                            JOINT LeftFinger0
                            {
                                OFFSET   2.044650  -2.323450   3.252850
                                CHANNELS 3 Zrotation Xrotation Yrotation
                                JOINT LeftFinger01
                                {
                                    OFFSET   3.088130   0.000000   0.000000
                                    CHANNELS 3 Zrotation Xrotation Yrotation
                                    JOINT LeftFinger02
                                    {
                                        OFFSET   2.639460   0.000000   0.000000
                                        CHANNELS 3 Zrotation Xrotation Yrotation
                                        End Site
                                        {
                                            OFFSET   2.582190   0.000000   0.000000
                                        }
                                    }
                                }
                            }
                            JOINT LeftFinger1
                            {
                                OFFSET   8.364480   0.000000   3.252850
                                CHANNELS 3 Zrotation Xrotation Yrotation
                                JOINT LeftFinger11
                                {
                                    OFFSET   4.646930   0.000000   0.000000
                                    CHANNELS 3 Zrotation Xrotation Yrotation
                                    JOINT LeftFinger12
                                    {
                                        OFFSET   2.323470   0.000000   0.000000
                                        CHANNELS 3 Zrotation Xrotation Yrotation
                                        End Site
                                        {
                                            OFFSET   2.273050   0.000000   0.000000
                                        }
                                    }
                                }
                            }
                            JOINT LeftFinger2
                            {
                                OFFSET   8.364490   0.000016   1.078090
                                CHANNELS 3 Zrotation Xrotation Yrotation
                                JOINT LeftFinger21
                                {
                                    OFFSET   5.111610   0.000000   0.000000
                                    CHANNELS 3 Zrotation Xrotation Yrotation
                                    JOINT LeftFinger22
                                    {
                                        OFFSET   2.788150   0.000016   0.000000
                                        CHANNELS 3 Zrotation Xrotation Yrotation
                                        End Site
                                        {
                                            OFFSET   2.727660   0.000000   0.000000
                                        }
                                    }
                                }
                            }
                            JOINT LeftFinger3
                            {
                                OFFSET   7.899780   0.000015  -1.078090
                                CHANNELS 3 Zrotation Xrotation Yrotation
                                JOINT LeftFinger31
                                {
                                    OFFSET   4.646930   0.000000   0.000000
                                    CHANNELS 3 Zrotation Xrotation Yrotation
                                    JOINT LeftFinger32
                                    {
                                        OFFSET   2.323470   0.000000   0.000000
                                        CHANNELS 3 Zrotation Xrotation Yrotation
                                        End Site
                                        {
                                            OFFSET   2.273050   0.000000   0.000000
                                        }
                                    }
                                }
                            }
                            JOINT LeftFinger4
                            {
                                OFFSET   7.435090   0.000000  -3.252850
                                CHANNELS 3 Zrotation Xrotation Yrotation
                                JOINT LeftFinger41
                                {
                                    OFFSET   3.717550   0.000000   0.000000
                                    CHANNELS 3 Zrotation Xrotation Yrotation
                                    JOINT LeftFinger42
                                    {
                                        OFFSET   1.858770   0.000000   0.000000
                                        CHANNELS 3 Zrotation Xrotation Yrotation
                                        End Site
                                        {
                                            OFFSET   1.818440   0.000000   0.000000
                                        }
                                    }
                                }
                            }
                        }
                    }
                }
            }
            JOINT RightCollar
            {
                OFFSET  -3.911910  19.017000  -0.467062
                CHANNELS 3 Zrotation Xrotation Yrotation
                JOINT RightShoulder
                {
                    OFFSET -10.383700   0.000014   0.000000
                    CHANNELS 3 Zrotation Xrotation Yrotation
                    JOINT RightElbow
                    {
                        OFFSET -26.662100   0.001225   0.001091
                        CHANNELS 3 Zrotation Xrotation Yrotation
                        JOINT RightWrist
                        {
                            OFFSET -28.869000  -0.000020  -0.000085
                            CHANNELS 3 Zrotation Xrotation Yrotation
                            JOINT RightFinger0
                            {
                                OFFSET  -2.044650  -2.323490   3.252850
                                CHANNELS 3 Zrotation Xrotation Yrotation
                                JOINT RightFinger01
                                {
                                    OFFSET  -3.088130   0.000000   0.000000
                                    CHANNELS 3 Zrotation Xrotation Yrotation
                                    JOINT RightFinger02
                                    {
                                        OFFSET  -2.639460   0.000000   0.000000
                                        CHANNELS 3 Zrotation Xrotation Yrotation
                                        End Site
                                        {
                                            OFFSET  -2.582190   0.000000   0.000000
                                        }
                                    }
                                }
                            }
                            JOINT RightFinger1
                            {
                                OFFSET  -8.364480   0.000000   3.252850
                                CHANNELS 3 Zrotation Xrotation Yrotation
                                JOINT RightFinger11
                                {
                                    OFFSET  -4.646930   0.000000   0.000000
                                    CHANNELS 3 Zrotation Xrotation Yrotation
                                    JOINT RightFinger12
                                    {
                                        OFFSET  -2.323470   0.000000   0.000000
                                        CHANNELS 3 Zrotation Xrotation Yrotation
                                        End Site
                                        {
                                            OFFSET  -2.273050   0.000000   0.000000
                                        }
                                    }
                                }
                            }
                            JOINT RightFinger2
                            {
                                OFFSET  -8.364480   0.000000   1.078090
                                CHANNELS 3 Zrotation Xrotation Yrotation
                                JOINT RightFinger21
                                {
                                    OFFSET  -5.111620   0.000000   0.000000
                                    CHANNELS 3 Zrotation Xrotation Yrotation
                                    JOINT RightFinger22
                                    {
                                        OFFSET  -2.788160   0.000000   0.000000
                                        CHANNELS 3 Zrotation Xrotation Yrotation
                                        End Site
                                        {
                                            OFFSET  -2.727660   0.000000   0.000000
                                        }
                                    }
                                }
                            }
                            JOINT RightFinger3
                            {
                                OFFSET  -7.899780   0.000000  -1.078090
                                CHANNELS 3 Zrotation Xrotation Yrotation
                                JOINT RightFinger31
                                {
                                    OFFSET  -4.646930   0.000000   0.000000
                                    CHANNELS 3 Zrotation Xrotation Yrotation
                                    JOINT RightFinger32
                                    {
                                        OFFSET  -2.323470   0.000000   0.000000
                                        CHANNELS 3 Zrotation Xrotation Yrotation
                                        End Site
                                        {
                                            OFFSET  -2.273050   0.000000   0.000000
                                        }
                                    }
                                }
                            }
                            JOINT RightFinger4
                            {
                                OFFSET  -7.435090   0.000000  -3.252850
                                CHANNELS 3 Zrotation Xrotation Yrotation
                                JOINT RightFinger41
                                {
                                    OFFSET  -3.717550   0.000000   0.000000
                                    CHANNELS 3 Zrotation Xrotation Yrotation
                                    JOINT RightFinger42
                                    {
                                        OFFSET  -1.858760   0.000000   0.000000
                                        CHANNELS 3 Zrotation Xrotation Yrotation
                                        End Site
                                        {
                                            OFFSET  -1.818440   0.000000   0.000000
                                        }
                                    }
                                }
                            }
                        }
                    }
                }
            }
        }
    }
    JOINT LeftHip
    {
        OFFSET   9.783030   0.000000   0.000000
        CHANNELS 3 Zrotation Xrotation Yrotation
        JOINT LeftKnee
        {
            OFFSET   0.000063 -41.789100   0.000608
            CHANNELS 3 Zrotation Xrotation Yrotation
            JOINT LeftAnkle
            {
                OFFSET   0.000048 -41.133200  -0.000184
                CHANNELS 3 Zrotation Xrotation Yrotation
                JOINT LeftToe
                {
                    OFFSET   0.000000  -6.358960  14.674500
                    CHANNELS 3 Zrotation Xrotation Yrotation
                    End Site
                    {
                        OFFSET   0.000000   0.000000   3.913200
                    }
                }
            }
        }
    }
    JOINT RightHip
    {
        OFFSET  -9.783030   0.000000   0.000000
        CHANNELS 3 Zrotation Xrotation Yrotation
        JOINT RightKnee
        {
            OFFSET   0.000071 -41.789100   0.001239
            CHANNELS 3 Zrotation Xrotation Yrotation
            JOINT RightAnkle
            {
                OFFSET   0.000037 -41.133200  -0.000166
                CHANNELS 3 Zrotation Xrotation Yrotation
                JOINT RightToe
                {
                    OFFSET   0.000000  -6.358960  14.674500
                    CHANNELS 3 Zrotation Xrotation Yrotation
                    End Site
                    {
                        OFFSET   0.000000   0.000000   3.913200
                    }
                }
            }
        }
    }
}
MOTION
Frames: 5
Frame Time:   0.016667
 -1.145350  89.537900  -0.259214  -3.252520  -6.842140  -9.016010   0.815280   4.536600   0.414717   1.605070   9.078580   0.768040   1.000350   0.059379  -0.000448   1.638980   0.129872   9.425430  -4.813360  -0.252856   3.301850 -73.863600  24.945200  -3.401370  -1.083720  -3.495180 -18.902300  16.023500  -9.344220   4.617690  36.277600  30.564300 -60.129500 -34.854400   0.001127   0.000861 -12.427200   0.004108  -0.002047 -31.575500   5.324280  -8.585510 -26.161700  -0.004809  -0.008431 -18.313200  -0.002534  -0.013222 -29.308000   1.636380  -2.912330 -44.025600   0.000218   0.005836 -29.321000  -0.005957  -0.004396 -28.655000   1.270180  -2.322390 -38.780100  -0.001354   0.001139 -25.827500  -0.003633  -0.003795 -33.504300   0.561985  -0.865652 -50.277900  -0.003024   0.001907 -33.474900  -0.003776  -0.005147  10.794700   2.150800  10.030500  64.047200  24.969700  -2.875040  -4.346820  -1.096710  18.369900  -9.764120 -11.677800   0.005968 -36.779100  33.088800  66.266800  34.380700  -0.000333  -0.001694  12.197900   0.006432  -0.007035  27.896100   8.351620  15.349900  23.747000  -0.001575   0.003763  16.622900  -0.005772   0.005091  28.041900   5.393480  10.005500  36.277300   0.005072   0.001839  24.160700  -0.008953   0.003206  27.458000   2.889280   5.518670  29.652600   0.004030   0.011455  19.748700   0.002229   0.003893  31.983000   0.881492   1.410490  47.990800   0.004302   0.011328  31.961800  -0.004560   0.009031   2.191780  10.527700   5.641510   0.951106   0.142030  10.000900  -1.308120  -4.028320   2.641860  -0.000000   0.000000  -0.000000   2.580950   8.845550   2.108090   0.163396   1.231250  -6.564830  -1.081010  -3.585790   1.710040   0.000000   0.000000   0.000000
 -1.145150  89.537900  -0.262620  -3.251800  -6.847460  -9.003260   0.812264   4.541680   0.415412   1.598940   9.088750   0.769596   1.000450   0.059377  -0.000439   1.639130   0.126281   9.423100  -4.815870  -0.260564   3.298300 -73.857200  24.956200  -3.401440  -1.080730  -3.479360 -18.944900  16.022500  -9.347070   4.601070  36.302200  30.591500 -60.133900 -34.846100   0.001090   0.000832 -12.423000   0.004094  -0.002069 -31.563000   5.318740  -8.580820 -26.150500  -0.004778  -0.008452 -18.305300  -0.002517  -0.013241 -29.308500   1.631500  -2.903600 -44.025600   0.000219   0.005837 -29.321000  -0.005960  -0.004365 -28.655200   1.267430  -2.317360 -38.780100  -0.001358   0.001137 -25.827500  -0.003632  -0.003764 -33.503600   0.562018  -0.865885 -50.272800  -0.003024   0.001905 -33.474300  -0.003773  -0.005127  10.796100   2.144040  10.026300  64.045900  24.983300  -2.846870  -4.347270  -1.097710  18.346000  -9.762030 -11.687700   0.008646 -36.761300  33.073200  66.284400  34.381500  -0.000347  -0.001691  12.196100   0.006438  -0.007046  27.916500   8.360930  15.349100  23.764100  -0.001572   0.003752  16.634900  -0.005774   0.005084  28.041900   5.393480  10.005700  36.295000   0.005078   0.001850  24.172400  -0.008952   0.003216  27.457700   2.889330   5.523660  29.667000   0.004033   0.011464  19.758300   0.002282   0.003863  31.988100   0.881638   1.410760  47.998500   0.004368   0.011346  31.967000  -0.004558   0.009043   2.188560  10.555900   5.641950   0.951535   0.092204   9.996990  -1.302910  -3.998560   2.635760   0.000000   0.000000  -0.000000   2.580660   8.846590   2.108120   0.166021   1.231730  -6.574590  -1.080850  -3.587680   1.710050  -0.000000   0.000000   0.000000
 -1.144940  89.537800  -0.268012  -3.250760  -6.856380  -8.983320   0.807097   4.550220   0.417587   1.588350   9.105850   0.774255   1.000630   0.059363  -0.000422   1.639530   0.120212   9.414060  -4.821150  -0.275306   3.291030 -73.850000  24.978800  -3.401840  -1.073580  -3.455780 -19.010400  16.026900  -9.352380   4.584480  36.323600  30.623500 -60.132000 -34.834600   0.001005   0.000766 -12.417300   0.004066  -0.002117 -31.547000   5.308000  -8.569090 -26.136800  -0.004706  -0.008494 -18.295700  -0.002477  -0.013290 -29.309500   1.622070  -2.886560 -44.025600   0.000220   0.005840 -29.321000  -0.005965  -0.004292 -28.655800   1.260700  -2.305060 -38.780100  -0.001362   0.001135 -25.827500  -0.003630  -0.003697 -33.503000   0.562081  -0.866118 -50.267700  -0.003025   0.001903 -33.473600  -0.003769  -0.005083  10.800800   2.118690  10.019900  64.050700  25.015900  -2.808910  -4.346360  -1.103970  18.304200  -9.756380 -11.697500   0.015466 -36.741800  33.060200  66.315400  34.382300  -0.000369  -0.001681  12.191200   0.006453  -0.007063  27.942500   8.370300  15.346500  23.786300  -0.001565   0.003721  16.650500  -0.005781   0.005064  28.042400   5.393480  10.005800  36.319800   0.005091   0.001871  24.189000  -0.008948   0.003234  27.457300   2.889360   5.531270  29.688400   0.004042   0.011489  19.772500   0.002400   0.003793  31.995000   0.881784   1.411030  48.008800   0.004517   0.011391  31.973900  -0.004554   0.009074   2.185390  10.584100   5.641910   0.951958   0.042378   9.990650  -1.297950  -3.968810   2.625790   0.000000   0.000000   0.000000   2.580360   8.847630   2.108180   0.171164   1.235240  -6.593000  -1.080580  -3.593270   1.710120  -0.000000   0.000000   0.000000
 -1.146170  89.537600  -0.271689  -3.249810  -6.862760  -8.970350   0.802742   4.556420   0.421848   1.579230   9.118260   0.783103   1.000840   0.057914  -0.000400   1.640140   0.116128   9.395170  -4.828430  -0.289974   3.281900 -73.857400  25.002500  -3.403030  -1.059640  -3.440890 -19.051800  16.044400  -9.355740   4.590960  36.324400  30.620500 -60.108100 -34.830100   0.000880   0.000662 -12.415000   0.004035  -0.002179 -31.544500   5.294420  -8.549230 -26.133900  -0.004599  -0.008540 -18.293700  -0.002416  -0.013371 -29.313700   1.611600  -2.867380 -44.030900   0.000218   0.005847 -29.324500  -0.005970  -0.004188 -28.656700   1.249960  -2.285370 -38.787200  -0.001363   0.001138 -25.832200  -0.003633  -0.003607 -33.506800   0.562165  -0.864744 -50.270400  -0.003027   0.001904 -33.477400  -0.003771  -0.005022  10.811700   2.072100  10.014900  64.068900  25.058900  -2.799390  -4.338290  -1.130550  18.268000  -9.746270 -11.677900   0.029350 -36.757500  33.082600  66.355100  34.364000  -0.000378  -0.001659  12.180400   0.006478  -0.007070  27.946600   8.369950  15.344500  23.789700  -0.001557   0.003672  16.652900  -0.005792   0.005032  28.044300   5.392820  10.005800  36.325300   0.005107   0.001889  24.192700  -0.008934   0.003255  27.457600   2.889320   5.536720  29.694300   0.004060   0.011531  19.776400   0.002568   0.003693  31.996200   0.881748   1.410960  48.010600   0.004728   0.011460  31.975100  -0.004549   0.009125   2.187400  10.566800   5.639760   0.952825   0.088558   9.986130  -1.301640  -3.987860   2.617940   0.000000   0.000000   0.000000   2.580450   8.845520   2.108240   0.178283   1.247160  -6.613390  -1.081590  -3.603270   1.714340  -0.000000   0.000000  -0.000000
 -1.149440  89.537500  -0.275100  -3.248990  -6.870910  -8.958400   0.798073   4.564310   0.426555   1.569420   9.134040   0.792862   1.000980   0.054261  -0.000377   1.641050   0.110044   9.371870  -4.835510  -0.309127   3.272040 -73.871200  25.039100  -3.407760  -1.040260  -3.433440 -19.084100  16.064400  -9.364120   4.604090  36.328300  30.612700 -60.090400 -34.828800   0.000745   0.000560 -12.414400   0.003994  -0.002255 -31.546800   5.282770  -8.529180 -26.133500  -0.004478  -0.008598 -18.293400  -0.002346  -0.013468 -29.323000   1.600070  -2.845900 -44.044200   0.000216   0.005854 -29.333400  -0.005975  -0.004067 -28.657700   1.238420  -2.264180 -38.804300  -0.001364   0.001143 -25.843600  -0.003635  -0.003505 -33.515900   0.562220  -0.861490 -50.280100  -0.003034   0.001906 -33.486500  -0.003772  -0.004948  10.832800   2.002030  10.012000  64.095900  25.122200  -2.796740  -4.328100  -1.162670  18.227000  -9.735720 -11.658300   0.039092 -36.772400  33.098400  66.385200  34.345700  -0.000387  -0.001636  12.172800   0.006509  -0.007077  27.951800   8.368260  15.337200  23.793100  -0.001548   0.003608  16.655200  -0.005809   0.004991  28.047000   5.391680  10.005500  36.335000   0.005124   0.001911  24.199100  -0.008919   0.003277  27.461200   2.889180   5.539560  29.708200   0.004082   0.011584  19.785600   0.002756   0.003578  31.997400   0.881495   1.410490  48.012400   0.004961   0.011544  31.976200  -0.004542   0.009182   2.189560  10.549600   5.637070   0.953699   0.134739   9.981720  -1.305280  -4.006910   2.610730  -0.000000   0.000000  -0.000000   2.580620   8.843410   2.108310   0.184458   1.263180  -6.634070  -1.084320  -3.615280   1.720960   0.000000   0.000000   0.000000
